<?xml version="1.0" encoding="UTF-8"?>
<svg version="1.1" xmlns="http://www.w3.org/2000/svg" width="1024" height="1024">
<path d="M0 0 C337.92 0 675.84 0 1024 0 C1024 337.92 1024 675.84 1024 1024 C686.08 1024 348.16 1024 0 1024 C0 686.08 0 348.16 0 0 Z " fill="#131D36" transform="translate(0,0)"/>
<path d="M0 0 C13.86 0 27.72 0 42 0 C42 63.69 42 127.38 42 193 C44.97 193.99 44.97 193.99 48 195 C49.96289062 196.0690918 49.96289062 196.0690918 51.65625 197.19921875 C52.60177734 197.80540039 52.60177734 197.80540039 53.56640625 198.42382812 C54.86086132 199.26980028 56.1499301 200.12406921 57.43359375 200.98632812 C60.5039953 202.93593892 62.30382731 203.9990947 66.00390625 204.00390625 C69.6956875 202.7668948 73.04038724 201.12484471 76.4375 199.25 C77.16775391 198.85514404 77.89800781 198.46028809 78.65039062 198.0534668 C86.79240212 193.62400239 94.84849048 189.03732866 102.90625 184.45703125 C109.08888819 180.94389668 115.29271825 177.46935576 121.5 174 C135.68662592 166.06340313 149.85684017 158.09818849 163.9609375 150.015625 C185.75874324 137.5242365 185.75874324 137.5242365 196.4375 131.625 C197.24147217 131.17882324 198.04544434 130.73264648 198.8737793 130.27294922 C199.61539307 129.8657666 200.35700684 129.45858398 201.12109375 129.0390625 C201.7545874 128.69053223 202.38808105 128.34200195 203.04077148 127.98291016 C205.29665636 126.85117277 207.65665909 125.93733636 210 125 C210 140.84 210 156.68 210 173 C206.37 174.98 202.74 176.96 199 179 C197.11379772 180.09642401 195.23492383 181.2058058 193.37109375 182.33984375 C192.41283691 182.91984131 191.45458008 183.49983887 190.46728516 184.09741211 C189.46745605 184.70464111 188.46762695 185.31187012 187.4375 185.9375 C178.72054034 191.20092673 169.95721557 196.36991232 161.125 201.4375 C151.14800645 207.16417464 141.23129169 212.98445835 131.34326172 218.86328125 C125.36471755 222.41636314 119.37984606 225.95755646 113.37890625 229.47265625 C112.74462204 229.84428391 112.11033783 230.21591156 111.45683289 230.59880066 C108.32199603 232.43453214 105.18527056 234.26693681 102.0456543 236.09448242 C96.99078231 239.04104807 91.95021034 241.99518756 87.015625 245.140625 C86.31727539 245.58156494 85.61892578 246.02250488 84.89941406 246.47680664 C83.17302939 247.57721044 81.4606676 248.69953705 79.75 249.82421875 C77 251 77 251 74.6340332 250.24633789 C72.03831583 249.01812979 69.57941956 247.69188145 67.10546875 246.234375 C66.16195557 245.68104492 65.21844238 245.12771484 64.24633789 244.55761719 C63.23692139 243.96110352 62.22750488 243.36458984 61.1875 242.75 C59.02349967 241.47906081 56.85943533 240.20823059 54.6953125 238.9375 C53.58704102 238.28523437 52.47876953 237.63296875 51.33691406 236.9609375 C46.08729512 233.875999 40.82427074 230.81414793 35.5625 227.75 C27.84335487 223.249876 20.13193306 218.73701664 12.43774414 214.19433594 C11.81762451 213.82856445 11.19750488 213.46279297 10.55859375 213.0859375 C10.03579834 212.7770459 9.51300293 212.4681543 8.97436523 212.14990234 C5.99399847 210.41408839 2.99457502 208.71118573 0 207 C0 138.69 0 70.38 0 0 Z " fill="#FBFBFC" transform="translate(421,402)"/>
<path d="M0 0 C13.86 0 27.72 0 42 0 C42 58.74 42 117.48 42 178 C28.14 178 14.28 178 0 178 C0 119.26 0 60.52 0 0 Z " fill="#F5F5F5" transform="translate(481,345)"/>
<path d="M0 0 C13.2 0 26.4 0 40 0 C40 60.72 40 121.44 40 184 C36.06481405 182.42592562 32.7712601 180.81495652 29.140625 178.69921875 C28.02429688 178.05146484 26.90796875 177.40371094 25.7578125 176.73632812 C24.58844795 176.05354589 23.41917763 175.37060226 22.25 174.6875 C19.96430814 173.35674939 17.67748482 172.02796316 15.390625 170.69921875 C13.8751709 169.81496216 13.8751709 169.81496216 12.32910156 168.9128418 C8.24383218 166.56551959 4.11869546 164.28816414 0 162 C0 108.54 0 55.08 0 0 Z " fill="#F0F0F0" transform="translate(367,416)"/>
<path d="M0 0 C12.54 0 25.08 0 38 0 C38.60163214 19.10516285 38.60163214 19.10516285 38.73242188 27.28710938 C38.8219116 32.85888478 38.92740716 38.42694348 39.1315918 43.99584961 C39.29531367 48.48961262 39.38439414 52.97939233 39.42315865 57.47590828 C39.45075387 59.18562658 39.50465886 60.89513996 39.58595085 62.60314751 C40.08228061 73.46957878 40.08228061 73.46957878 38 78 C34.39814649 81.92525671 29.64856559 84.1029296 24.82553101 86.18548203 C22.26644205 87.32729991 19.90782283 88.75492152 17.51953125 90.21484375 C15.95122745 91.12361637 14.38224298 92.03121559 12.8125 92.9375 C12.00748047 93.40478516 11.20246094 93.87207031 10.37304688 94.35351562 C6.94608069 96.33575249 3.5445408 98.2277296 0 100 C0 67 0 34 0 0 Z " fill="#DDA655" transform="translate(542,459)"/>
<path d="M0 0 C12.54 0 25.08 0 38 0 C38 16.83 38 33.66 38 51 C17.78515625 62.23046875 17.78515625 62.23046875 16.02638245 63.2051239 C13.40457372 64.65885605 10.78825002 66.12057526 8.18310547 67.60400391 C7.3788916 68.06081543 6.57467773 68.51762695 5.74609375 68.98828125 C4.71826782 69.57863159 4.71826782 69.57863159 3.66967773 70.1809082 C2 71 2 71 0 71 C0 47.57 0 24.14 0 0 Z " fill="#D49C4E" transform="translate(593,459)"/>
<path d="M0 0 C12.54 0 25.08 0 38 0 C38 17.49 38 34.98 38 53 C25.46 53 12.92 53 0 53 C0 35.51 0 18.02 0 0 Z " fill="#D8A255" transform="translate(593,394)"/>
<path d="M0 0 C12.54 0 25.08 0 38 0 C38 17.49 38 34.98 38 53 C25.46 53 12.92 53 0 53 C0 35.51 0 18.02 0 0 Z " fill="#DBA758" transform="translate(542,394)"/>
<path d="M0 0 C0 18.48 0 36.96 0 56 C-12.54 56 -25.08 56 -38 56 C-38 40.82 -38 25.64 -38 10 C-34.266875 8.906875 -30.53375 7.81375 -26.6875 6.6875 C-25.53467529 6.34936279 -24.38185059 6.01122559 -23.1940918 5.6628418 C-18.10105002 4.1745731 -13.00370362 2.70151382 -7.89453125 1.26953125 C-7.0228833 1.02436768 -6.15123535 0.7792041 -5.25317383 0.52661133 C-3 0 -3 0 0 0 Z " fill="#EDC477" transform="translate(580,327)"/>
<path d="M0 0 C5.40974896 1.20216644 10.45591575 2.35266228 15.6875 4 C16.74324219 4.33 17.79898438 4.66 18.88671875 5 C20.96526072 5.66763707 23.03464371 6.36447676 25.09375 7.08984375 C27.74667863 7.92066683 30.05367171 8.34160574 32.8125 8.5625 C36.89781022 8.89781022 36.89781022 8.89781022 38 10 C38.09295815 11.44289787 38.11746513 12.89029785 38.11352539 14.33618164 C38.11344986 15.2570607 38.11337433 16.17793976 38.11329651 17.12672424 C38.10813522 18.12775681 38.10297394 19.12878937 38.09765625 20.16015625 C38.0962413 21.17975937 38.09482635 22.19936249 38.09336853 23.24986267 C38.08775097 26.52077107 38.0751955 29.79161213 38.0625 33.0625 C38.05748726 35.27408756 38.05292396 37.48567618 38.04882812 39.69726562 C38.0386248 45.13155752 38.01905285 50.56570298 38 56 C25.46 56 12.92 56 0 56 C0 37.52 0 19.04 0 0 Z " fill="#E6B768" transform="translate(593,327)"/>
<path d="M0 0 C7.92 0 15.84 0 24 0 C24 8.25 24 16.5 24 25 C21.525 26.4025 19.05 27.805 16.5 29.25 C15.73751953 29.68344727 14.97503906 30.11689453 14.18945312 30.56347656 C13.55974609 30.91893555 12.93003906 31.27439453 12.28125 31.640625 C11.65283203 31.99672852 11.02441406 32.35283203 10.37695312 32.71972656 C6.96003245 34.56014686 3.47131027 36.26434486 0 38 C0 25.46 0 12.92 0 0 Z " fill="#F0F0F0" transform="translate(494,542)"/>
<path d="M0 0 C11.88 0 23.76 0 36 0 C36 0.33 36 0.66 36 1 C19.665 1.495 19.665 1.495 3 2 C2.67 15.53 2.34 29.06 2 43 C0 41 0 41 -0.22705078 37.00927734 C-0.22673337 35.28479831 -0.21539124 33.56029967 -0.1953125 31.8359375 C-0.1924826 30.92872955 -0.18965271 30.02152161 -0.18673706 29.08682251 C-0.17552153 26.18274877 -0.15041463 23.27898088 -0.125 20.375 C-0.11497197 18.40885861 -0.10584581 16.4427124 -0.09765625 14.4765625 C-0.07727731 9.65082838 -0.03813153 4.82575746 0 0 Z " fill="#E6B460" transform="translate(542,460)"/>
<path d="M0 0 C0 0.66 0 1.32 0 2 C-7.92 2 -15.84 2 -24 2 C-24 1.34 -24 0.68 -24 0 C-15.88303369 -1.28162626 -8.14684214 -0.6976874 0 0 Z " fill="#263452" transform="translate(518,540)"/>
</svg>
